<svg version="1.1" id="Layer_1" xmlns="http://www.w3.org/2000/svg" xmlns:xlink="http://www.w3.org/1999/xlink" x="0px" y="0px"
	 width="100%" viewBox="0 0 1130 650" enable-background="new 0 0 1130 650" xml:space="preserve">
<path fill="#F5F9FF" opacity="1.000000" stroke="none" 
	d="
M818.000000,651.000000 
	C545.333374,651.000000 273.166687,651.000000 1.000036,651.000000 
	C1.000024,434.333374 1.000024,217.666718 1.000012,1.000066 
	C377.666626,1.000044 754.333252,1.000044 1131.000000,1.000022 
	C1131.000000,217.666611 1131.000000,434.333221 1131.000000,650.999878 
	C1026.833374,651.000000 922.666687,651.000000 818.000000,651.000000 
M712.006531,500.167969 
	C712.361328,498.403931 713.026367,496.639313 713.023071,494.875946 
	C712.989441,477.075104 712.856262,459.274384 712.731995,441.473755 
	C712.498169,407.983154 712.192871,374.492889 712.035095,341.001923 
	C711.954224,323.843414 712.118896,306.683624 712.188293,289.524475 
	C712.289917,264.388123 712.463501,239.251923 712.496155,214.115509 
	C712.520142,195.633026 712.100952,177.145493 712.433777,158.670197 
	C712.555359,151.917709 709.152649,147.171585 705.012512,143.213104 
	C702.129395,140.456406 697.106018,137.734711 693.555481,138.291702 
	C682.809570,139.977432 672.663757,144.160706 665.020020,152.405746 
	C650.889221,167.648285 637.245422,183.346344 622.977722,198.457062 
	C595.543884,227.511780 567.869324,256.340302 540.142151,285.115723 
	C536.726257,288.660645 532.435181,291.385406 528.419067,294.310883 
	C527.530701,294.958008 525.928589,295.329071 524.926636,295.000183 
	C519.252380,293.137604 513.521423,291.344360 510.664001,285.182495 
	C509.783813,283.284332 508.094177,281.718018 506.618988,280.146362 
	C496.958832,269.854523 487.220520,259.635986 477.573517,249.331940 
	C447.890411,217.627304 418.314880,185.821457 388.513519,154.228500 
	C381.624908,146.925766 373.509521,141.556305 363.390656,138.816147 
	C351.939270,135.715149 340.119629,146.681488 340.162872,156.966980 
	C340.250122,177.722656 340.919342,198.475189 341.120453,219.231232 
	C341.438293,252.028091 341.701996,284.826630 341.732574,317.624664 
	C341.753967,340.582550 341.295410,363.540466 341.145447,386.498993 
	C340.903809,423.488861 340.471497,460.482086 340.859406,497.466125 
	C340.912018,502.483307 344.440887,508.116821 347.848511,512.232727 
	C350.422028,515.341064 355.229706,517.771362 359.294098,518.217957 
	C366.641327,519.025208 374.175201,518.041931 381.632843,517.956726 
	C393.425110,517.821960 405.286804,518.536682 416.983093,517.440552 
	C422.795197,516.895874 428.975372,514.025940 433.719696,510.499939 
	C436.978241,508.078278 439.729553,502.757568 439.827026,498.664093 
	C440.397491,474.709198 440.157806,450.733978 440.113892,426.765778 
	C440.079102,407.796234 440.053345,388.824982 439.748566,369.858887 
	C439.675415,365.308868 440.546997,361.688538 445.861481,358.619232 
	C450.253601,362.074371 455.625366,365.431885 459.924500,369.836426 
	C476.192169,386.502899 491.889374,403.730530 508.317657,420.232819 
	C512.447205,424.380981 518.167908,427.594330 523.750427,429.498840 
	C532.758118,432.571930 539.075867,426.056000 544.288452,420.342285 
	C561.888184,401.050537 580.500854,382.783173 599.152466,364.546997 
	C601.884888,361.875397 605.398621,360.002930 608.550842,357.760712 
	C609.229675,357.949860 609.908569,358.138977 610.587402,358.328094 
	C611.462158,362.858093 612.939941,367.367706 613.093628,371.922028 
	C613.486389,383.561707 613.260254,395.221497 613.338623,406.872864 
	C613.387817,414.187866 613.639160,421.502411 613.625427,428.816833 
	C613.595398,444.764160 613.370850,460.711426 613.399841,476.658386 
	C613.411072,482.815796 613.492798,489.024261 614.279846,495.114105 
	C615.015442,500.805939 616.649231,506.391876 618.093872,511.971008 
	C618.315186,512.825867 619.552124,513.810730 620.482056,514.023071 
	C625.314941,515.126587 630.172058,516.615295 635.072937,516.841980 
	C653.044983,517.673157 671.040222,517.989075 689.021667,518.637939 
	C699.144897,519.003296 705.823853,514.912476 709.774597,505.531952 
	C710.419922,503.999756 711.076599,502.472412 712.006531,500.167969 
M795.630005,151.340988 
	C795.086182,154.234833 794.065308,157.129028 794.067322,160.022491 
	C794.143250,268.641144 794.259827,377.259949 794.604431,485.877960 
	C794.625061,492.380920 796.027161,499.025757 797.747986,505.342682 
	C800.315308,514.767395 806.887695,518.674988 816.557739,517.825867 
	C820.693237,517.462830 824.861511,517.264038 829.011353,517.310669 
	C847.503845,517.518738 865.994263,517.941833 884.487000,518.074341 
	C891.613892,518.125488 898.745422,517.386597 905.873840,517.404358 
	C918.490540,517.435730 931.155457,518.541565 943.708130,517.745972 
	C954.690613,517.049866 966.045288,517.888000 976.562927,513.048889 
	C979.364624,511.759796 982.674927,511.574738 985.752686,510.886993 
	C992.708923,509.332428 999.817383,508.262238 1006.592102,506.131042 
	C1022.651733,501.079010 1036.364502,491.643188 1050.231567,482.369598 
	C1059.618652,476.091980 1068.070190,469.222778 1074.441040,459.826630 
	C1083.935913,445.822601 1094.454712,432.436035 1102.992676,417.880432 
	C1112.331299,401.960052 1115.668945,383.501282 1119.322144,365.722717 
	C1122.400879,350.739685 1122.703003,334.918365 1122.165405,319.540466 
	C1121.692505,306.014069 1118.558838,292.552094 1116.227295,279.126495 
	C1113.361938,262.627502 1107.950195,247.020096 1099.563599,232.403412 
	C1089.026489,214.038773 1075.292236,198.241791 1060.845215,182.997971 
	C1057.450928,179.416351 1053.682007,175.992020 1049.538696,173.353882 
	C1035.625000,164.494629 1022.476257,154.944077 1006.043030,149.758270 
	C988.356140,144.176804 970.515991,140.073166 952.432739,139.364639 
	C913.493103,137.838989 874.474304,138.274277 835.487061,138.070343 
	C827.561035,138.028900 819.480408,137.885056 811.749695,139.305313 
	C805.223572,140.504288 797.718872,142.017181 795.630005,151.340988 
M197.300400,366.633423 
	C197.478210,358.137177 197.845779,349.639801 197.796692,341.144867 
	C197.670807,319.356628 196.868378,297.559509 197.310349,275.785706 
	C197.568497,263.068695 196.671753,250.143295 200.781006,237.653976 
	C203.133026,230.505386 208.624237,224.791275 216.122467,224.700607 
	C233.684204,224.488266 251.254028,224.758148 268.818237,225.002335 
	C280.488251,225.164581 290.741943,215.326935 290.854370,203.449432 
	C290.988403,189.285919 290.784790,175.113434 291.239044,160.961273 
	C291.445557,154.528000 288.529022,149.428375 284.824615,145.247360 
	C281.853119,141.893524 276.900635,138.447769 272.724060,138.316086 
	C249.977875,137.598846 227.199707,137.851913 204.432556,137.857742 
	C186.869598,137.862228 169.291107,141.541397 151.729065,137.367050 
	C148.733734,136.655106 145.428040,137.152863 142.270004,137.242493 
	C136.635010,137.402390 130.998779,137.599213 125.371338,137.924194 
	C118.625603,138.313766 111.892723,139.170410 105.146820,139.259232 
	C93.019112,139.418930 80.885902,139.116562 68.754868,139.101440 
	C65.939522,139.097946 63.110615,139.754471 60.310455,139.624069 
	C49.994392,139.143585 39.690128,138.416290 29.376953,137.865555 
	C19.213205,137.322800 8.314141,146.624176 8.129887,156.694565 
	C7.831469,173.004471 7.968799,189.327560 8.218794,205.640518 
	C8.387397,216.642380 18.227224,227.448303 30.854458,224.638718 
	C33.093700,224.140472 35.493343,224.219208 37.815014,224.259064 
	C51.143303,224.487869 64.471054,225.020599 77.797722,224.984406 
	C88.313316,224.955811 96.011368,228.862030 100.196823,238.781113 
	C100.765137,240.127975 101.676292,241.513336 101.684853,242.885513 
	C101.798019,261.012695 101.801308,279.140747 101.784630,297.268524 
	C101.766403,317.083313 101.687134,336.898010 101.656746,356.712799 
	C101.634773,371.035950 101.689285,385.359283 101.637314,399.682281 
	C101.570862,417.996399 101.498734,436.311005 101.301811,454.623993 
	C101.153336,468.431732 100.716248,482.236725 100.623489,496.044403 
	C100.605820,498.673401 101.241127,501.446716 102.192940,503.915222 
	C104.701622,510.421265 109.578575,514.300415 116.469681,515.559021 
	C121.002975,516.386963 125.537193,517.825378 130.080856,517.865234 
	C143.570343,517.983459 157.099106,518.041687 170.542542,517.111633 
	C177.180908,516.652405 183.678024,514.014038 190.202713,512.228882 
	C190.991577,512.013062 191.876755,511.083221 192.166458,510.284515 
	C193.866821,505.596344 196.522522,500.909882 196.784470,496.109772 
	C197.553192,482.022552 197.349121,467.882202 197.524460,453.762665 
	C197.571762,449.953430 197.573380,446.143127 197.665115,442.335022 
	C197.973282,429.542480 198.609940,416.749420 198.554184,403.958984 
	C198.501358,391.839142 197.735153,379.722382 197.300400,366.633423 
z"/>
<path fill="#014F8F" opacity="1.000000" stroke="none" 
	d="
M711.867310,500.555389 
	C711.076599,502.472412 710.419922,503.999756 709.774597,505.531952 
	C705.823853,514.912476 699.144897,519.003296 689.021667,518.637939 
	C671.040222,517.989075 653.044983,517.673157 635.072937,516.841980 
	C630.172058,516.615295 625.314941,515.126587 620.482056,514.023071 
	C619.552124,513.810730 618.315186,512.825867 618.093872,511.971008 
	C616.649231,506.391876 615.015442,500.805939 614.279846,495.114105 
	C613.492798,489.024261 613.411072,482.815796 613.399841,476.658386 
	C613.370850,460.711426 613.595398,444.764160 613.625427,428.816833 
	C613.639160,421.502411 613.387817,414.187866 613.338623,406.872864 
	C613.260254,395.221497 613.486389,383.561707 613.093628,371.922028 
	C612.939941,367.367706 611.462158,362.858093 610.587402,358.328094 
	C609.908569,358.138977 609.229675,357.949860 608.550842,357.760712 
	C605.398621,360.002930 601.884888,361.875397 599.152466,364.546997 
	C580.500854,382.783173 561.888184,401.050537 544.288452,420.342285 
	C539.075867,426.056000 532.758118,432.571930 523.750427,429.498840 
	C518.167908,427.594330 512.447205,424.380981 508.317657,420.232819 
	C491.889374,403.730530 476.192169,386.502899 459.924500,369.836426 
	C455.625366,365.431885 450.253601,362.074371 445.861481,358.619232 
	C440.546997,361.688538 439.675415,365.308868 439.748566,369.858887 
	C440.053345,388.824982 440.079102,407.796234 440.113892,426.765778 
	C440.157806,450.733978 440.397491,474.709198 439.827026,498.664093 
	C439.729553,502.757568 436.978241,508.078278 433.719696,510.499939 
	C428.975372,514.025940 422.795197,516.895874 416.983093,517.440552 
	C405.286804,518.536682 393.425110,517.821960 381.632843,517.956726 
	C374.175201,518.041931 366.641327,519.025208 359.294098,518.217957 
	C355.229706,517.771362 350.422028,515.341064 347.848511,512.232727 
	C344.440887,508.116821 340.912018,502.483307 340.859406,497.466125 
	C340.471497,460.482086 340.903809,423.488861 341.145447,386.498993 
	C341.295410,363.540466 341.753967,340.582550 341.732574,317.624664 
	C341.701996,284.826630 341.438293,252.028091 341.120453,219.231232 
	C340.919342,198.475189 340.250122,177.722656 340.162872,156.966980 
	C340.119629,146.681488 351.939270,135.715149 363.390656,138.816147 
	C373.509521,141.556305 381.624908,146.925766 388.513519,154.228500 
	C418.314880,185.821457 447.890411,217.627304 477.573517,249.331940 
	C487.220520,259.635986 496.958832,269.854523 506.618988,280.146362 
	C508.094177,281.718018 509.783813,283.284332 510.664001,285.182495 
	C513.521423,291.344360 519.252380,293.137604 524.926636,295.000183 
	C525.928589,295.329071 527.530701,294.958008 528.419067,294.310883 
	C532.435181,291.385406 536.726257,288.660645 540.142151,285.115723 
	C567.869324,256.340302 595.543884,227.511780 622.977722,198.457062 
	C637.245422,183.346344 650.889221,167.648285 665.020020,152.405746 
	C672.663757,144.160706 682.809570,139.977432 693.555481,138.291702 
	C697.106018,137.734711 702.129395,140.456406 705.012512,143.213104 
	C709.152649,147.171585 712.555359,151.917709 712.433777,158.670197 
	C712.100952,177.145493 712.520142,195.633026 712.496155,214.115509 
	C712.463501,239.251923 712.289917,264.388123 712.188293,289.524475 
	C712.118896,306.683624 711.954224,323.843414 712.035095,341.001923 
	C712.192871,374.492889 712.498169,407.983154 712.731995,441.473755 
	C712.856262,459.274384 712.989441,477.075104 713.023071,494.875946 
	C713.026367,496.639313 712.361328,498.403931 711.867310,500.555389 
z"/>
<path fill="#014F8F" opacity="1.000000" stroke="none" 
	d="
M795.786987,150.976639 
	C797.718872,142.017181 805.223572,140.504288 811.749695,139.305313 
	C819.480408,137.885056 827.561035,138.028900 835.487061,138.070343 
	C874.474304,138.274277 913.493103,137.838989 952.432739,139.364639 
	C970.515991,140.073166 988.356140,144.176804 1006.043030,149.758270 
	C1022.476257,154.944077 1035.625000,164.494629 1049.538696,173.353882 
	C1053.682007,175.992020 1057.450928,179.416351 1060.845215,182.997971 
	C1075.292236,198.241791 1089.026489,214.038773 1099.563599,232.403412 
	C1107.950195,247.020096 1113.361938,262.627502 1116.227295,279.126495 
	C1118.558838,292.552094 1121.692505,306.014069 1122.165405,319.540466 
	C1122.703003,334.918365 1122.400879,350.739685 1119.322144,365.722717 
	C1115.668945,383.501282 1112.331299,401.960052 1102.992676,417.880432 
	C1094.454712,432.436035 1083.935913,445.822601 1074.441040,459.826630 
	C1068.070190,469.222778 1059.618652,476.091980 1050.231567,482.369598 
	C1036.364502,491.643188 1022.651733,501.079010 1006.592102,506.131042 
	C999.817383,508.262238 992.708923,509.332428 985.752686,510.886993 
	C982.674927,511.574738 979.364624,511.759796 976.562927,513.048889 
	C966.045288,517.888000 954.690613,517.049866 943.708130,517.745972 
	C931.155457,518.541565 918.490540,517.435730 905.873840,517.404358 
	C898.745422,517.386597 891.613892,518.125488 884.487000,518.074341 
	C865.994263,517.941833 847.503845,517.518738 829.011353,517.310669 
	C824.861511,517.264038 820.693237,517.462830 816.557739,517.825867 
	C806.887695,518.674988 800.315308,514.767395 797.747986,505.342682 
	C796.027161,499.025757 794.625061,492.380920 794.604431,485.877960 
	C794.259827,377.259949 794.143250,268.641144 794.067322,160.022491 
	C794.065308,157.129028 795.086182,154.234833 795.786987,150.976639 
M910.050049,228.511475 
	C896.562439,231.293549 896.310608,231.213318 892.716614,242.494888 
	C891.384155,246.677567 891.069458,251.337738 891.097961,255.774933 
	C891.242615,278.258850 891.916016,300.741730 891.855713,323.223511 
	C891.826782,334.018707 889.960999,344.815155 890.037964,355.603119 
	C890.163513,373.224487 891.154297,390.841125 891.864197,408.456360 
	C892.339233,420.244659 899.361450,428.624329 911.085693,428.930084 
	C924.984375,429.292511 938.956421,428.335663 952.841309,427.245544 
	C963.733887,426.390320 973.460754,421.993713 982.995911,416.440979 
	C993.753357,410.176453 1001.393188,400.995911 1008.550598,391.567719 
	C1014.168274,384.167664 1019.750854,375.546326 1021.553589,366.694550 
	C1025.263184,348.479675 1029.870361,329.998199 1024.235596,311.019104 
	C1020.481262,298.373718 1021.037476,284.713470 1014.347351,272.620636 
	C1004.926819,255.592712 992.426697,241.907562 974.206665,234.691559 
	C953.837891,226.624496 932.524841,225.091888 910.050049,228.511475 
z"/>
<path fill="#014F8F" opacity="1.000000" stroke="none" 
	d="
M197.291534,367.118835 
	C197.735153,379.722382 198.501358,391.839142 198.554184,403.958984 
	C198.609940,416.749420 197.973282,429.542480 197.665115,442.335022 
	C197.573380,446.143127 197.571762,449.953430 197.524460,453.762665 
	C197.349121,467.882202 197.553192,482.022552 196.784470,496.109772 
	C196.522522,500.909882 193.866821,505.596344 192.166458,510.284515 
	C191.876755,511.083221 190.991577,512.013062 190.202713,512.228882 
	C183.678024,514.014038 177.180908,516.652405 170.542542,517.111633 
	C157.099106,518.041687 143.570343,517.983459 130.080856,517.865234 
	C125.537193,517.825378 121.002975,516.386963 116.469681,515.559021 
	C109.578575,514.300415 104.701622,510.421265 102.192940,503.915222 
	C101.241127,501.446716 100.605820,498.673401 100.623489,496.044403 
	C100.716248,482.236725 101.153336,468.431732 101.301811,454.623993 
	C101.498734,436.311005 101.570862,417.996399 101.637314,399.682281 
	C101.689285,385.359283 101.634773,371.035950 101.656746,356.712799 
	C101.687134,336.898010 101.766403,317.083313 101.784630,297.268524 
	C101.801308,279.140747 101.798019,261.012695 101.684853,242.885513 
	C101.676292,241.513336 100.765137,240.127975 100.196823,238.781113 
	C96.011368,228.862030 88.313316,224.955811 77.797722,224.984406 
	C64.471054,225.020599 51.143303,224.487869 37.815014,224.259064 
	C35.493343,224.219208 33.093700,224.140472 30.854458,224.638718 
	C18.227224,227.448303 8.387397,216.642380 8.218794,205.640518 
	C7.968799,189.327560 7.831469,173.004471 8.129887,156.694565 
	C8.314141,146.624176 19.213205,137.322800 29.376953,137.865555 
	C39.690128,138.416290 49.994392,139.143585 60.310455,139.624069 
	C63.110615,139.754471 65.939522,139.097946 68.754868,139.101440 
	C80.885902,139.116562 93.019112,139.418930 105.146820,139.259232 
	C111.892723,139.170410 118.625603,138.313766 125.371338,137.924194 
	C130.998779,137.599213 136.635010,137.402390 142.270004,137.242493 
	C145.428040,137.152863 148.733734,136.655106 151.729065,137.367050 
	C169.291107,141.541397 186.869598,137.862228 204.432556,137.857742 
	C227.199707,137.851913 249.977875,137.598846 272.724060,138.316086 
	C276.900635,138.447769 281.853119,141.893524 284.824615,145.247360 
	C288.529022,149.428375 291.445557,154.528000 291.239044,160.961273 
	C290.784790,175.113434 290.988403,189.285919 290.854370,203.449432 
	C290.741943,215.326935 280.488251,225.164581 268.818237,225.002335 
	C251.254028,224.758148 233.684204,224.488266 216.122467,224.700607 
	C208.624237,224.791275 203.133026,230.505386 200.781006,237.653976 
	C196.671753,250.143295 197.568497,263.068695 197.310349,275.785706 
	C196.868378,297.559509 197.670807,319.356628 197.796692,341.144867 
	C197.845779,349.639801 197.478210,358.137177 197.291534,367.118835 
z"/>
<path fill="#F4F8FF" opacity="1.000000" stroke="none" 
	d="
M910.461365,228.387939 
	C932.524841,225.091888 953.837891,226.624496 974.206665,234.691559 
	C992.426697,241.907562 1004.926819,255.592712 1014.347351,272.620636 
	C1021.037476,284.713470 1020.481262,298.373718 1024.235596,311.019104 
	C1029.870361,329.998199 1025.263184,348.479675 1021.553589,366.694550 
	C1019.750854,375.546326 1014.168274,384.167664 1008.550598,391.567719 
	C1001.393188,400.995911 993.753357,410.176453 982.995911,416.440979 
	C973.460754,421.993713 963.733887,426.390320 952.841309,427.245544 
	C938.956421,428.335663 924.984375,429.292511 911.085693,428.930084 
	C899.361450,428.624329 892.339233,420.244659 891.864197,408.456360 
	C891.154297,390.841125 890.163513,373.224487 890.037964,355.603119 
	C889.960999,344.815155 891.826782,334.018707 891.855713,323.223511 
	C891.916016,300.741730 891.242615,278.258850 891.097961,255.774933 
	C891.069458,251.337738 891.384155,246.677567 892.716614,242.494888 
	C896.310608,231.213318 896.562439,231.293549 910.461365,228.387939 
z"/>
</svg>