<svg version="1.1" viewBox="132.48 142.04026845637586 1334.3999999999999 468.668903803132" xmlns:xlink="http://www.w3.org/1999/xlink" xmlns="http://www.w3.org/2000/svg" style="max-height: 500px" width="1334.3999999999999" height="468.668903803132">
<g id="surface1">
<path d="M 1196 152.070312 C 1191.339844 153.253906 1205.269531 154.074219 1229.332031 154.03125 C 1260.273438 153.972656 1266.644531 153.457031 1254.667969 151.96875 C 1234.117188 149.417969 1206.230469 149.46875 1196 152.070312 M 197.863281 154.054688 C 210.625 154.542969 232.222656 154.546875 245.863281 154.0625 C 259.507812 153.574219 249.066406 153.175781 222.667969 153.171875 C 196.265625 153.171875 185.105469 153.566406 197.863281 154.054688 M 330.070312 154.027344 C 336.339844 154.59375 345.941406 154.585938 351.402344 154.011719 C 356.863281 153.4375 351.734375 152.976562 340 152.984375 C 328.265625 152.992188 323.796875 153.464844 330.070312 154.027344" style="stroke:none;fill-rule:evenodd;fill:rgb(36.862746%,55.29412%,69.01961%);fill-opacity:1;"/>
<path d="M 155.703125 152.015625 C 152.605469 153.269531 147.417969 157.667969 144.175781 161.789062 C 138.636719 168.835938 138.335938 171.472656 139.140625 205.964844 C 140.3125 256.027344 138.496094 254.34375 193.183594 256.121094 C 232.046875 257.382812 234.605469 257.796875 241.121094 263.921875 L 248 270.390625 L 248 424.488281 C 248 515.964844 249.035156 581.3125 250.546875 585.292969 C 255.4375 598.160156 264.527344 601.3125 299.71875 602.339844 C 341.523438 603.5625 353.996094 600.238281 360.980469 586.015625 C 365.667969 576.46875 365.949219 567.433594 365.695312 433.515625 C 365.550781 355.222656 366.5 285.414062 367.8125 278.390625 C 371.667969 257.75 375.429688 256.121094 419.214844 256.121094 C 462.0625 256.121094 469.566406 253.300781 474.558594 235.328125 C 477.914062 223.238281 478.066406 189.128906 474.828125 175.15625 C 471.960938 162.8125 462.464844 151.804688 456.613281 154.050781 C 453.878906 155.101562 453.117188 154.582031 454.386719 152.523438 C 455.835938 150.175781 442.273438 149.492188 399.492188 149.753906 C 367.511719 149.953125 346.746094 150.964844 352 152.070312 C 359.261719 153.597656 356.707031 154.113281 340.507812 154.386719 C 329.054688 154.582031 320.316406 153.722656 321.082031 152.480469 C 321.851562 151.234375 297.019531 150.242188 265.90625 150.277344 C 219.351562 150.324219 214.765625 150.628906 240 152.003906 C 268.8125 153.574219 267.769531 153.6875 222.667969 153.890625 C 195.847656 154.011719 178.199219 153.210938 182.667969 152.070312 C 189.277344 150.386719 188.121094 150.007812 176 149.886719 C 167.933594 149.804688 158.800781 150.765625 155.703125 152.015625 M 550.945312 152.523438 C 552.214844 154.582031 551.457031 155.101562 548.71875 154.050781 C 546.222656 153.09375 542.097656 155.089844 538.367188 159.0625 L 532.164062 165.664062 L 531.683594 372.964844 C 531.210938 575.648438 531.316406 580.464844 536.503906 588.976562 C 539.425781 593.761719 544.023438 598.867188 546.730469 600.316406 C 552.046875 603.160156 612.929688 603.960938 625.945312 601.359375 C 630.3125 600.484375 637.363281 597 641.609375 593.609375 L 649.332031 587.453125 L 650.667969 502.523438 C 651.878906 425.171875 652.40625 417.519531 656.558594 416.722656 C 659.527344 416.148438 673.894531 428.96875 697.890625 453.601562 C 718.117188 474.375 737.75 492.976562 741.515625 494.949219 C 755.15625 502.09375 762.410156 498.488281 788 471.855469 C 824.097656 434.285156 847.789062 412.425781 850.011719 414.644531 C 851.105469 415.734375 852.660156 455.25 853.464844 502.453125 C 854.269531 549.652344 855.863281 590.28125 857.003906 592.738281 C 860.402344 600.042969 865.96875 601.023438 911.492188 602.332031 C 953.59375 603.542969 955.179688 603.394531 961.277344 597.664062 C 964.738281 594.410156 968.890625 588.566406 970.5 584.671875 C 972.566406 579.6875 973.21875 516.753906 972.714844 371.71875 L 972 165.835938 L 965.460938 158.875 C 961.863281 155.046875 957.304688 152.535156 955.324219 153.296875 C 953.34375 154.054688 952.457031 153.488281 953.351562 152.042969 C 954.246094 150.589844 953.039062 149.402344 950.667969 149.402344 C 948.292969 149.402344 947.121094 150.652344 948.066406 152.175781 C 949.152344 153.9375 947.5 154.40625 943.558594 153.457031 C 933.570312 151.058594 920.753906 161.238281 884.851562 200.09375 C 821.980469 268.128906 765.710938 326.308594 758.128906 331.109375 C 751.871094 335.074219 749.507812 335.355469 744.667969 332.703125 C 741.441406 330.933594 703.539062 291.667969 660.441406 245.449219 C 617.347656 199.226562 578.425781 159.304688 573.949219 156.730469 C 569.324219 154.070312 563.792969 152.828125 561.136719 153.851562 C 557.945312 155.074219 557.070312 154.65625 558.386719 152.523438 C 559.625 150.515625 558.296875 149.402344 554.667969 149.402344 C 551.035156 149.402344 549.707031 150.515625 550.945312 152.523438 M 1093.332031 152.335938 C 1096.390625 154.515625 1095.328125 154.84375 1088.835938 153.730469 C 1082.855469 152.703125 1078.515625 153.75 1074.171875 157.269531 L 1068 162.269531 L 1067.285156 366.800781 C 1066.800781 504.1875 1067.492188 574.765625 1069.382812 581.792969 C 1070.933594 587.546875 1074.851562 594.726562 1078.097656 597.75 C 1083.863281 603.125 1086.148438 603.230469 1178.664062 602.390625 C 1251.15625 601.734375 1275.207031 600.683594 1281.332031 597.914062 C 1285.734375 595.921875 1292.375 594 1296.097656 593.640625 C 1320.871094 591.246094 1366.132812 567.605469 1388.183594 545.542969 C 1399.851562 533.867188 1427.332031 494.539062 1436.777344 475.988281 C 1454.644531 440.914062 1460.5 379.066406 1450.792969 328.0625 C 1441.980469 281.761719 1427.902344 254.261719 1392.441406 214.09375 C 1372.660156 191.679688 1320.132812 159.046875 1311.96875 164.09375 C 1310.519531 164.992188 1309.332031 164.324219 1309.332031 162.613281 C 1309.332031 160.90625 1307.609375 160.164062 1305.507812 160.972656 C 1303.398438 161.78125 1301.230469 161.101562 1300.683594 159.464844 C 1300.136719 157.824219 1293.578125 156.394531 1286.105469 156.277344 C 1278.632812 156.167969 1273.492188 155.472656 1274.683594 154.738281 C 1275.871094 154.003906 1256.851562 153.617188 1232.421875 153.878906 C 1205.878906 154.164062 1191.222656 153.480469 1196 152.195312 C 1200.820312 150.890625 1181.207031 149.925781 1146.667969 149.761719 C 1105.328125 149.558594 1090.449219 150.28125 1093.332031 152.335938 M 1200.417969 261.441406 C 1195.515625 262.601562 1190.117188 264.9375 1188.417969 266.632812 C 1184.820312 270.226562 1181.871094 391.078125 1184 447.449219 C 1185.6875 492.070312 1185.355469 491.652344 1220.757812 493.808594 C 1235.097656 494.683594 1248.085938 494.300781 1249.839844 492.945312 C 1251.585938 491.605469 1255.1875 490.851562 1257.839844 491.269531 C 1265.523438 492.480469 1293.71875 478.191406 1304.910156 467.414062 C 1318.464844 454.359375 1330.617188 436.613281 1333.738281 425.292969 C 1340.304688 401.507812 1340.996094 375.371094 1335.800781 347.101562 C 1328.359375 306.558594 1312.914062 283.691406 1284.035156 270.464844 C 1260.546875 259.707031 1224.292969 255.792969 1200.417969 261.441406" style="stroke:none;fill-rule:evenodd;fill:rgb(1.568628%,29.411766%,54.11765%);fill-opacity:1;"/>
</g>
</svg>