<svg version="1.1" id="Layer_1" xmlns="http://www.w3.org/2000/svg" xmlns:xlink="http://www.w3.org/1999/xlink" x="0px" y="0px"
	 width="100%" viewBox="0 0 257 257" enable-background="new 0 0 257 257" xml:space="preserve">
<path fill="#FEFEFE" opacity="1.000000" stroke="none" 
	d="
M146.000000,258.000000 
	C97.333336,258.000000 49.166668,258.000000 1.000000,258.000000 
	C1.000000,172.333328 1.000000,86.666664 1.000000,1.000000 
	C86.666664,1.000000 172.333328,1.000000 258.000000,1.000000 
	C258.000000,86.666664 258.000000,172.333328 258.000000,258.000000 
	C220.833328,258.000000 183.666672,258.000000 146.000000,258.000000 
M246.116852,109.065361 
	C246.055634,93.062553 245.994431,77.059738 246.061127,60.160709 
	C246.914780,52.225796 244.241608,45.286152 238.072876,40.698338 
	C230.675934,35.197075 222.856415,29.850599 214.456284,26.188749 
	C188.775284,14.993689 161.286331,11.668770 133.661240,11.382870 
	C114.809105,11.187763 95.816788,12.874099 77.091797,15.299337 
	C57.928104,17.781399 39.332626,23.219952 22.705864,33.671307 
	C12.692300,39.965694 5.079240,47.971340 6.041563,62.001179 
	C6.081706,77.691063 6.121850,93.380951 6.055034,109.993950 
	C6.095887,125.700073 6.136739,141.406189 6.061890,158.029083 
	C6.063917,173.349442 6.071898,188.669785 6.065030,203.990143 
	C6.062297,210.085297 8.245647,215.252975 12.204092,219.880508 
	C18.336864,227.049866 26.319151,231.392609 34.735432,235.077530 
	C56.478416,244.597260 79.467079,248.522690 102.968361,250.222076 
	C136.243500,252.628189 169.099350,250.606461 201.255035,241.141815 
	C213.428268,237.558762 225.177017,232.911194 235.136505,224.774200 
	C240.768906,220.172470 245.807373,214.735092 245.939209,206.998657 
	C246.217148,190.690842 245.961517,174.373917 246.164474,157.138824 
	C246.098343,141.423187 246.032211,125.707542 246.116852,109.065361 
z"/>
<path fill="#89C4F4" opacity="1.000000" stroke="none" 
	d="
M6.125606,61.080036 
	C5.079240,47.971340 12.692300,39.965694 22.705864,33.671307 
	C39.332626,23.219952 57.928104,17.781399 77.091797,15.299337 
	C95.816788,12.874099 114.809105,11.187763 133.661240,11.382870 
	C161.286331,11.668770 188.775284,14.993689 214.456284,26.188749 
	C222.856415,29.850599 230.675934,35.197075 238.072876,40.698338 
	C244.241608,45.286152 246.914780,52.225796 245.739655,60.828873 
	C244.250275,63.868599 243.330307,66.406235 241.872131,68.583389 
	C235.027298,78.803101 224.205841,83.459984 213.490173,87.907791 
	C197.026779,94.741341 179.719086,98.219406 161.993057,100.136452 
	C141.800507,102.320259 121.667313,102.464409 101.415504,101.134392 
	C83.482292,99.956657 65.816231,97.315887 48.842587,91.640152 
	C31.661182,85.894951 14.541708,79.382362 6.125606,61.080036 
z"/>
<path fill="#2C3089" opacity="1.000000" stroke="none" 
	d="
M245.924820,158.060730 
	C245.961517,174.373917 246.217148,190.690842 245.939209,206.998657 
	C245.807373,214.735092 240.768906,220.172470 235.136505,224.774200 
	C225.177017,232.911194 213.428268,237.558762 201.255035,241.141815 
	C169.099350,250.606461 136.243500,252.628189 102.968361,250.222076 
	C79.467079,248.522690 56.478416,244.597260 34.735432,235.077530 
	C26.319151,231.392609 18.336864,227.049866 12.204092,219.880508 
	C8.245647,215.252975 6.062297,210.085297 6.065030,203.990143 
	C6.071898,188.669785 6.063917,173.349442 6.354129,157.816284 
	C7.967354,160.437042 8.608152,164.017151 10.740621,165.960083 
	C16.462603,171.173477 22.275436,176.721161 29.027264,180.292816 
	C54.206516,193.612320 81.882095,197.554672 109.803719,198.734299 
	C126.991943,199.460464 144.310516,198.095123 161.523849,196.960327 
	C179.646729,195.765594 197.321304,191.784744 214.087570,184.744537 
	C227.317398,179.189301 240.329895,172.928375 245.924820,158.060730 
M232.059509,215.481003 
	C235.906464,210.029465 236.249832,204.314835 233.000336,199.822800 
	C229.592636,195.112061 224.067581,193.075439 219.037094,194.675751 
	C213.583237,196.410751 209.788574,200.810135 209.521576,206.226242 
	C209.252121,211.692261 211.694077,215.931595 216.508713,218.475571 
	C222.019913,221.387604 227.093170,220.247238 232.059509,215.481003 
z"/>
<path fill="#5EBCE5" opacity="1.000000" stroke="none" 
	d="
M6.083584,61.540607 
	C14.541708,79.382362 31.661182,85.894951 48.842587,91.640152 
	C65.816231,97.315887 83.482292,99.956657 101.415504,101.134392 
	C121.667313,102.464409 141.800507,102.320259 161.993057,100.136452 
	C179.719086,98.219406 197.026779,94.741341 213.490173,87.907791 
	C224.205841,83.459984 235.027298,78.803101 241.872131,68.583389 
	C243.330307,66.406235 244.250275,63.868599 245.675705,61.276985 
	C245.994431,77.059738 246.055634,93.062553 245.777924,109.750328 
	C242.034836,119.510078 235.132950,125.430328 227.028671,129.922516 
	C198.517365,145.726288 167.084671,149.421036 135.338928,150.750900 
	C121.647102,151.324478 107.839767,149.963104 94.124123,148.949844 
	C74.185196,147.476822 54.764999,143.269165 36.304340,135.490402 
	C23.442883,130.070969 11.431452,123.320557 6.161993,109.070839 
	C6.121850,93.380951 6.081706,77.691063 6.083584,61.540607 
M217.790543,122.074440 
	C219.241272,122.381859 220.682846,122.894295 222.144379,122.959427 
	C227.136719,123.181892 233.133926,119.080292 234.642914,114.568909 
	C236.485199,109.060997 234.437317,102.654251 229.817123,99.471504 
	C224.890503,96.077667 219.202713,96.329048 214.531326,99.977074 
	C207.904770,105.151939 206.985016,115.865387 217.790543,122.074440 
z"/>
<path fill="#507DBC" opacity="1.000000" stroke="none" 
	d="
M6.108513,109.532394 
	C11.431452,123.320557 23.442883,130.070969 36.304340,135.490402 
	C54.764999,143.269165 74.185196,147.476822 94.124123,148.949844 
	C107.839767,149.963104 121.647102,151.324478 135.338928,150.750900 
	C167.084671,149.421036 198.517365,145.726288 227.028671,129.922516 
	C235.132950,125.430328 242.034836,119.510078 245.702515,110.213600 
	C246.032211,125.707542 246.098343,141.423187 246.044647,157.599777 
	C240.329895,172.928375 227.317398,179.189301 214.087570,184.744537 
	C197.321304,191.784744 179.646729,195.765594 161.523849,196.960327 
	C144.310516,198.095123 126.991943,199.460464 109.803719,198.734299 
	C81.882095,197.554672 54.206516,193.612320 29.027264,180.292816 
	C22.275436,176.721161 16.462603,171.173477 10.740621,165.960083 
	C8.608152,164.017151 7.967354,160.437042 6.411980,157.357895 
	C6.136739,141.406189 6.095887,125.700073 6.108513,109.532394 
M218.404602,146.332443 
	C217.125793,147.095856 215.798630,147.789368 214.576660,148.634933 
	C209.655304,152.040359 208.106186,157.613831 210.376282,163.541855 
	C212.461441,168.986984 218.729538,172.051849 225.625565,170.998184 
	C230.260712,170.289948 234.403198,165.158127 235.074707,160.122726 
	C236.108154,152.373215 229.477112,144.062317 218.404602,146.332443 
z"/>
<path fill="#88C2F2" opacity="1.000000" stroke="none" 
	d="
M231.816925,215.771255 
	C227.093170,220.247238 222.019913,221.387604 216.508713,218.475571 
	C211.694077,215.931595 209.252121,211.692261 209.521576,206.226242 
	C209.788574,200.810135 213.583237,196.410751 219.037094,194.675751 
	C224.067581,193.075439 229.592636,195.112061 233.000336,199.822800 
	C236.249832,204.314835 235.906464,210.029465 231.816925,215.771255 
z"/>
<path fill="#88C4F4" opacity="1.000000" stroke="none" 
	d="
M217.411194,121.979683 
	C206.985016,115.865387 207.904770,105.151939 214.531326,99.977074 
	C219.202713,96.329048 224.890503,96.077667 229.817123,99.471504 
	C234.437317,102.654251 236.485199,109.060997 234.642914,114.568909 
	C233.133926,119.080292 227.136719,123.181892 222.144379,122.959427 
	C220.682846,122.894295 219.241272,122.381859 217.411194,121.979683 
z"/>
<path fill="#88C3F3" opacity="1.000000" stroke="none" 
	d="
M218.796906,146.216309 
	C229.477112,144.062317 236.108154,152.373215 235.074707,160.122726 
	C234.403198,165.158127 230.260712,170.289948 225.625565,170.998184 
	C218.729538,172.051849 212.461441,168.986984 210.376282,163.541855 
	C208.106186,157.613831 209.655304,152.040359 214.576660,148.634933 
	C215.798630,147.789368 217.125793,147.095856 218.796906,146.216309 
z"/>
</svg>