<svg xmlns="http://www.w3.org/2000/svg" width="600" height="268" viewBox="0 0 600 268" version="1.1"><path d="M 448.500 57 C 446.753 57.444, 451.976 57.751, 461 57.735 C 472.602 57.713, 474.991 57.519, 470.500 56.962 C 462.794 56.005, 452.337 56.024, 448.500 57 M 74.199 57.744 C 78.984 57.927, 87.084 57.928, 92.199 57.746 C 97.315 57.564, 93.400 57.414, 83.500 57.413 C 73.600 57.412, 69.415 57.561, 74.199 57.744 M 123.776 57.733 C 126.128 57.945, 129.728 57.942, 131.776 57.727 C 133.824 57.512, 131.900 57.339, 127.500 57.343 C 123.100 57.346, 121.424 57.522, 123.776 57.733" stroke="none" fill="#5e8db0" fill-rule="evenodd"/><path d="M 58.388 56.980 C 57.227 57.449, 55.282 59.098, 54.066 60.643 C 51.989 63.284, 51.876 64.273, 52.178 77.201 C 52.617 95.966, 51.936 95.334, 72.444 96 C 87.018 96.473, 87.977 96.629, 90.420 98.924 L 93 101.349 93 159.109 C 93 193.397, 93.388 217.891, 93.955 219.383 C 95.789 224.206, 99.198 225.387, 112.394 225.772 C 128.071 226.230, 132.749 224.984, 135.368 219.653 C 137.126 216.075, 137.231 212.688, 137.136 162.492 C 137.081 133.146, 137.438 106.981, 137.930 104.348 C 139.375 96.611, 140.786 96, 157.206 96 C 173.274 96, 176.088 94.943, 177.959 88.207 C 179.218 83.675, 179.275 70.890, 178.060 65.653 C 176.986 61.026, 173.424 56.900, 171.230 57.742 C 170.204 58.136, 169.919 57.941, 170.395 57.170 C 170.939 56.289, 165.852 56.033, 149.809 56.132 C 137.817 56.206, 130.030 56.585, 132 57 C 134.723 57.573, 133.765 57.766, 127.691 57.868 C 123.396 57.941, 120.118 57.619, 120.406 57.153 C 120.694 56.686, 111.383 56.315, 99.715 56.327 C 82.257 56.345, 80.537 56.460, 90 56.975 C 100.805 57.563, 100.413 57.606, 83.500 57.682 C 73.443 57.728, 66.824 57.427, 68.500 57 C 70.979 56.369, 70.545 56.227, 66 56.182 C 62.975 56.151, 59.550 56.511, 58.388 56.980 M 206.605 57.170 C 207.081 57.941, 206.796 58.136, 205.770 57.742 C 204.834 57.383, 203.286 58.132, 201.888 59.620 L 199.562 62.095 199.381 139.797 C 199.204 215.768, 199.244 217.573, 201.189 220.763 C 202.284 222.557, 204.009 224.470, 205.024 225.013 C 207.017 226.079, 229.848 226.380, 234.729 225.404 C 236.367 225.077, 239.011 223.770, 240.604 222.500 L 243.500 220.192 244 188.359 C 244.455 159.365, 244.652 156.497, 246.209 156.198 C 247.323 155.983, 252.711 160.789, 261.709 170.022 C 269.294 177.807, 276.656 184.780, 278.069 185.520 C 283.184 188.197, 285.904 186.846, 295.500 176.863 C 309.036 162.781, 317.921 154.588, 318.754 155.419 C 319.164 155.828, 319.747 170.639, 320.049 188.332 C 320.351 206.024, 320.948 221.253, 321.376 222.173 C 322.651 224.911, 324.739 225.279, 341.809 225.769 C 357.598 226.223, 358.193 226.167, 360.479 224.020 C 361.777 222.800, 363.334 220.609, 363.938 219.150 C 364.712 217.281, 364.957 193.692, 364.768 139.329 L 364.500 62.160 362.048 59.551 C 360.699 58.115, 358.989 57.174, 358.246 57.459 C 357.504 57.744, 357.171 57.532, 357.507 56.989 C 357.843 56.445, 357.390 56, 356.500 56 C 355.610 56, 355.171 56.468, 355.525 57.040 C 355.932 57.699, 355.312 57.875, 353.834 57.520 C 350.089 56.620, 345.283 60.436, 331.819 75 C 308.243 100.501, 287.141 122.308, 284.299 124.108 C 281.952 125.594, 281.066 125.699, 279.251 124.705 C 278.040 124.042, 263.827 109.325, 247.666 92 C 231.505 74.675, 216.909 59.711, 215.231 58.747 C 213.497 57.750, 211.423 57.284, 210.426 57.667 C 209.229 58.126, 208.901 57.969, 209.395 57.170 C 209.860 56.417, 209.362 56, 208 56 C 206.638 56, 206.140 56.417, 206.605 57.170 M 410 57.100 C 411.146 57.916, 410.748 58.039, 408.314 57.622 C 406.071 57.237, 404.443 57.630, 402.814 58.949 L 400.500 60.823 400.232 137.486 C 400.051 188.982, 400.310 215.437, 401.019 218.071 C 401.600 220.227, 403.070 222.919, 404.287 224.052 C 406.448 226.066, 407.306 226.106, 441.999 225.791 C 469.184 225.545, 478.203 225.151, 480.500 224.113 C 482.150 223.367, 484.641 222.646, 486.036 222.511 C 495.326 221.614, 512.300 212.753, 520.569 204.483 C 524.945 200.107, 535.249 185.366, 538.792 178.413 C 545.491 165.266, 547.688 142.083, 544.048 122.966 C 540.743 105.612, 535.463 95.304, 522.166 80.248 C 514.747 71.847, 495.050 59.615, 491.988 61.507 C 491.445 61.843, 491 61.593, 491 60.952 C 491 60.311, 490.354 60.034, 489.565 60.337 C 488.775 60.640, 487.962 60.385, 487.757 59.771 C 487.552 59.157, 485.092 58.620, 482.290 58.577 C 479.488 58.535, 477.560 58.275, 478.006 58 C 478.452 57.725, 471.320 57.580, 462.158 57.677 C 452.205 57.784, 446.708 57.529, 448.500 57.046 C 450.307 56.558, 442.952 56.196, 430 56.134 C 414.498 56.059, 408.918 56.329, 410 57.100 M 450.157 97.995 C 448.319 98.430, 446.294 99.305, 445.657 99.940 C 444.308 101.287, 443.201 146.586, 444 167.715 C 444.633 184.440, 444.508 184.283, 457.784 185.092 C 463.161 185.420, 468.032 185.276, 468.690 184.769 C 469.345 184.266, 470.695 183.983, 471.690 184.140 C 474.571 184.594, 485.144 179.238, 489.342 175.198 C 494.425 170.306, 498.981 163.653, 500.152 159.411 C 502.614 150.495, 502.873 140.699, 500.926 130.102 C 498.135 114.906, 492.343 106.335, 481.513 101.377 C 472.705 97.345, 459.110 95.878, 450.157 97.995" stroke="none" fill="#044b8a" fill-rule="evenodd"/></svg>